/* XPM */
static char *_557997285604[] = {
/* columns rows colors chars-per-pixel */
"40 40 160 2 ",
"   c #001F5B",
".  c #00225D",
"X  c #011E62",
"o  c #032364",
"O  c #01246B",
"+  c #002A6D",
"@  c #002674",
"#  c #022A73",
"$  c #00277B",
"%  c #012A7C",
"&  c #00317E",
"*  c #002782",
"=  c #002C84",
"-  c #012D8A",
";  c #013185",
":  c #01328C",
">  c #022E92",
",  c #013494",
"<  c #013996",
"1  c #01349B",
"2  c #09359D",
"3  c #033B9C",
"4  c #083D9B",
"5  c #0234A1",
"6  c #033CA3",
"7  c #0A3EA6",
"8  c #033EA9",
"9  c #093EAA",
"0  c #1F4A8E",
"q  c #0B429D",
"w  c #164595",
"e  c #1C4891",
"r  c #154C9F",
"t  c #1D4D9A",
"y  c #1F5792",
"u  c #24568B",
"i  c #255891",
"p  c #235A99",
"a  c #0642A4",
"s  c #0944A4",
"d  c #0C4BA6",
"f  c #0544AA",
"g  c #0A45AA",
"h  c #0C4CAB",
"j  c #114EA7",
"k  c #114DAA",
"l  c #0F51AE",
"z  c #1051A5",
"x  c #1852A4",
"c  c #175AA1",
"v  c #185CA7",
"b  c #1254AD",
"n  c #1855AE",
"m  c #145AAE",
"M  c #1C5CAB",
"N  c #0E4DB3",
"B  c #094EBB",
"V  c #114DB2",
"C  c #0D54B2",
"Z  c #0B5AB6",
"A  c #0C54BB",
"S  c #0D5BBC",
"D  c #1354B3",
"F  c #1955B2",
"G  c #155BB3",
"H  c #1A5DB4",
"J  c #1454B8",
"K  c #1853BB",
"L  c #145BBA",
"P  c #1A5BBA",
"I  c #225DA1",
"U  c #225DAB",
"Y  c #1662A4",
"T  c #1B61A6",
"R  c #1E68A5",
"E  c #1762AD",
"W  c #1B63AC",
"Q  c #1D6AAD",
"!  c #1762B5",
"~  c #1A63B4",
"^  c #1D6AB5",
"/  c #1663BB",
"(  c #1C64BA",
")  c #1E6CBA",
"_  c #1E71B4",
"`  c #1F72BB",
"'  c #2760A3",
"]  c #2269A7",
"[  c #2A68A5",
"{  c #2263AB",
"}  c #2867AC",
"|  c #2369AD",
" . c #2A6EAB",
".. c #306FA2",
"X. c #2E74A7",
"o. c #2A73AF",
"O. c #3474A0",
"+. c #3C7DA4",
"@. c #347BAF",
"#. c #3B7FAC",
"$. c #2164B3",
"%. c #216CB5",
"&. c #216CBA",
"*. c #2272B6",
"=. c #2875B4",
"-. c #2579B6",
";. c #2474BC",
":. c #2A77BF",
">. c #2479BB",
",. c #297CBD",
"<. c #327DB4",
"1. c #0953C0",
"2. c #115FC3",
"3. c #1463C1",
"4. c #1B6BC2",
"5. c #1C71C2",
"6. c #2576C2",
"7. c #2876C1",
"8. c #267AC1",
"9. c #2B7CC2",
"0. c #2876C8",
"q. c #2B7DCB",
"w. c #2781BB",
"e. c #2C83BD",
"r. c #2989BC",
"t. c #3C82B5",
"y. c #3384BD",
"u. c #3C85BC",
"i. c #328ABD",
"p. c #3C8DBE",
"a. c #3597BE",
"s. c #3599BD",
"d. c #4181A7",
"f. c #4A96AE",
"g. c #4087BD",
"h. c #438CBC",
"j. c #4484B2",
"k. c #4392B4",
"l. c #4994B3",
"z. c #4791B8",
"x. c #2D82C3",
"c. c #2D8BC3",
"v. c #2D83CD",
"b. c #2C8ACA",
"n. c #3184C4",
"m. c #3B86C0",
"M. c #338CC4",
"N. c #3B8DC3",
"B. c #3286CA",
"V. c #358BCA",
"C. c #398FCC",
"Z. c #3493C4",
"A. c #3A93C5",
"S. c #3499C1",
"D. c #3791C8",
"F. c #3B95CA",
"G. c #3E9ACD",
"H. c #428EC2",
"J. c #4294C3",
"K. c #409ACC",
/* pixels */
"s.a.Z.c.x.6.) ( b g 4 , ; = % @ X X X X     . . o + & ; q a h C M ] ,.x.b.M.A.A.",
"S.S.Z.M.e.;.&.( b j q : : ; % $ O X X o o X . o + # & : < a N G M | -.9.b.b.F.J.",
"S.A.Z.M.9.6.&.( n d q < : : = % O O o O o o o O # & ; : < g B J H %.0.q.b.V.F.H.",
"A.A.D.M.x.6.&.$.b j q 4 , : - = @ @ O O O O @ @ # ; ; , 4 g V J $.&.0.q.v.V.N.H.",
"N.C.V.B.,.;.$.$.n j q < , , - - $ @ $ @ @ $ $ $ * - , , 3 9 N J ( &.0.q.v.B.u.h.",
"V.B.n.m.9.:.%.$.M j s 4 < 1 > - = % % % $ * * * - > , 2 6 g V J P ) 6.0.9.<.t.j.",
"n.n.n.9.:.&.%.$.H n j s 6 3 1 , : ; ; ; - - > - > 2 2 7 9 g V P ! ^ 6.6.9.<.t.d.",
"9.9.9.,.:.:.$.( $.n j g s a 6 1 : : : : - > 2 2 2 7 7 9 g V K P G ^ %.-.,.<.+.+.",
"=.-.-.;.*.^ ^ ~ ! C C l f f 8 6 5 5 5 5 5 1 1 3 1 3 9 g k F F n { R Q ` >.` =.o.",
"=.-.;.*.*.^ W ! G G D C l f f f f 8 8 6 6 6 8 6 9 s s k k F F H T R _ ` ` >.=.o.",
"*.%._ *.) ) ^ ~ ! H G G C C h N f h h f f d d d d d b b F H H $.~ ~ ) 4.5.6.*. .",
") ^ ^ ) ( ^ ~ ( ! ! ! L G D Z C C b l m b b b b n b m G H H H P ~ ( ) 4.5.) $.} ",
"~ ~ ~ ~ ( ~ ( ~ ! ( ! ! / ! ! ! ~ E ~ E ~ ~ ~ ~ ! ~ ~ ! ~ ~ ~ ( ~ / 4.3./ ( { ' ",
"( P P ! ( ! ( ~ ~ ( ! ( ^ ) ) ) ^ *.%.*.%.*.%.) ^ ^ ^ ^ ~ ~ ~ ~ / / / / ! E ' p ",
"F P G F G ! ( ( ( ( ) &.&.;.;.>.-.-.,.,.,.,.,.>.;.;.;.` ) ^ ^ ! / / S ! G v y i ",
"J F J G F P ( ( ) ) ` *.6.8.9.9.,.e.e.y.x.n.,.9.9.9.8.>.` ` _ ) ! / / ! m c y u ",
"V D h D b H G ~ ( %.;.;.,.9.n.n.M.M.i.Z.i.i.i.i.i.e.,.,.,.;.) ~ { M m C S A l d ",
"k N b b b G G ~ ^ %.;.9.,.9.n.V.M.M.Z.Z.Z.A.A.i.i.i.e.,.,.;.) ^ { W G Z A A l d ",
"N h l l b G H ~ ~ ) ;.9.x.n.V.V.D.D.F.F.A.A.A.A.N.i.y.e.,.;.^ ^ $.M J A 1.B h d ",
"h h h h b m ~ ~ ( %.:.9.9.n.V.C.F.F.G.G.K.G.G.F.A.M.n.x.9.>.^ ^ $.H L A 1.B g q ",
"h h h h b G ~ ~ ^ %.6.9.n.B.V.C.G.G.G.G.G.G.K.J.A.M.n.x.9.:.) ^ $.( D A B N d q ",
"h h h l b G G ~ ) *.6.9.x.n.V.C.F.F.G.G.G.G.J.A.A.M.y.x.9.7.%.^ ~ H L A A N t w ",
"V h D h b G H ( ) ;.:.9.x.n.B.C.D.D.D.G.G.A.A.A.N.i.y.x.9.6.*.) ^ M D J V F t 0 ",
"D D D D b H m H ) &.;.9.,.x.n.M.D.D.D.F.S.A.S.N.M.y.e.9.,.6.*.^ W E m D J x t 0 ",
"b h b b b M ! E ^ Q ^ *.-.w.e.e.r.r.r.c.M.c.c.x.x.e.,.,.;.%.%.^ Y Y E Z Z Z z r ",
"D D b b m m E ~ ^ ^ Q *.=.-.-.,.w.w.r.x.x.e.,.9.,.>.;.;.%.^ ^ ^ Y E ! S S Z b x ",
"H G G G H H ^ ~ ^ W ^ %.*.*.=.-.-.-.>.>.>.>.;.;.;.;.;.%.^ ^ ~ Q Q ! / 3.2.L F M ",
"~ M ~ ~ ~ ~ ~ ~ ~ ~ ^ ^ ^ %.^ ) ) ) %._ ) ) %.%.%.&.) ) ^ ^ ~ ~ Q ! / 3.3.2.H U ",
"! E ~ ~ ~ ~ ! ! ~ ) ( ( ( ! ! G ! H G ! H ! ! ! ~ ~ ~ ~ ! ~ ~ ~ E E / 3.3.( $.{ ",
"^ ^ ^ ^ Q ~ E ! ( ( ! H G G J J D F D D b l D b G D m ! H ! ~ ( E E ! / / ^ } [ ",
"_ _ _ ` _ ! ~ ! ! G G D D h N N g g g 7 a g d h l h l l m D m m Q Q ! ( ) %.o...",
"` ` ;.;.` ) ^ ! G L D C N g f g 9 9 6 6 6 6 6 a f h d l l l m m Q Q _ ) ` -.O.O.",
"e.8.8.8.;.%.~ ( H b b g g s 6 5 4 , , 1 1 1 5 5 5 5 7 9 f l G ! Y W *.;.8.>.<.@.",
"x.x.x.9.6.%.~ ~ ~ b h d g 6 3 1 , : : , , > 1 5 1 5 7 s d l m E E | *.8.8.9.,.<.",
"c.x.x.q.6.;.( &.G b d s 6 3 1 , - : ; - - > > > > 1 1 6 a d b G ~ ( 6.0.q.x.<.u.",
"M.b.M.x.9.6.&.P b b g 3 3 1 , - ; % % * * * * - - : , 3 q g b G ( &.0.q.v.B.m.g.",
"Z.M.c.c.x.8.4.&.G l s 3 , : - = # # # $ @ $ $ $ = - : , 3 f h J ( &.0.q.B.V.N.h.",
"Z.Z.Z.b.x.6.&.4.D h q < , - = = # O O X O O @ # % = : : < a C J $.&.0.B.B.V.z.z.",
"S.S.Z.b.x.5.` ( D b q , , = = % o o o o o o + O # % ; , < 6 N J ( %.7.9.M.i.k.l.",
"S.S.S.b.x.5.` 4.J V a , : = = % o o o o . o o o # % ; : < a N J ( %.:.n.n.p.k.f."
};
